# xmcd
#
# Track frame offsets:
# 150
# 13020
# 32526
# 47027
# 60969
# 72433
# 88930
# 105995
# 119302
# 134706
# 155738
# 170550
# 184218
# 196009
# 208981
# 225650
# 239645
# 254947
# 269375
#
# Disc length: 3804 seconds
#
#
# Revision: 0
# Processed by: cddbd v1.5.1PL2 Copyright (c) Steve Scherf et al.
# Submitted via: FreeRIP 2.944 
#
DISCID=1d0eda13
DTITLE=Rio Negro and Solimões - Evolution
DYEAR=2005
DGENRE=Country
TTITLE0=Balançou Sacudiu
TTITLE1=Frio da Madrugada
TTITLE2=De São Paulo a Belem
TTITLE3=Deixa a Pueira Baixar
TTITLE4=Rei da Festa
TTITLE5=A Gentre se Entrega
TTITLE6=Lenha
TTITLE7=Saudade Pulou no Peito
TTITLE8=Só Alegria
TTITLE9=Só Lembranças
TTITLE10=Te Esperando na Janela
TTITLE11=Cuitelinho
TTITLE12=Carro Velho
TTITLE13=Clube do Batidão
TTITLE14=Estrela Guia
TTITLE15=O Grito da Galera
TTITLE16=Temporal de Lágrimas
TTITLE17=Tendel
TTITLE18=To Porai
EXTD=Topógrafo Café
EXTT0=
EXTT1=
EXTT2=
EXTT3=
EXTT4=
EXTT5=
EXTT6=
EXTT7=
EXTT8=
EXTT9=
EXTT10=
EXTT11=
EXTT12=
EXTT13=
EXTT14=
EXTT15=
EXTT16=
EXTT17=
EXTT18=
PLAYORDER=
